<svg width="63" height="63" viewBox="0 0 63 63" fill="none" xmlns="http://www.w3.org/2000/svg">
<circle cx="31.5" cy="31.5" r="31.5" fill="white"/>
<circle cx="23.4773" cy="38.1067" r="2.93681" stroke="#00B127" stroke-width="2"/>
<circle cx="38.6189" cy="38.1067" r="2.93681" stroke="#00B127" stroke-width="2"/>
<path d="M46.4223 16.4063C46.6466 15.6088 46.1819 14.7805 45.3844 14.5562C44.5869 14.3319 43.7586 14.7965 43.5343 15.594L46.4223 16.4063ZM40.9713 35.7875L46.4223 16.4063L43.5343 15.594L38.0834 34.9752L40.9713 35.7875Z" fill="#00B127"/>
<path d="M44.9785 16.0002H51.0351" stroke="#00B127" stroke-width="3" stroke-linecap="round"/>
<line x1="23.5405" y1="33.5" x2="39.5405" y2="33.5" stroke="#00B127"/>
<line x1="25.5405" y1="30.5" x2="40.5405" y2="30.5" stroke="#00B127"/>
<line x1="27.6504" y1="28.1155" x2="41.167" y2="28.1155" stroke="#00B127"/>
<line x1="29.5405" y1="25.5" x2="42.5405" y2="25.5" stroke="#00B127"/>
<line x1="30.5405" y1="22.5" x2="42.5405" y2="22.5" stroke="#00B127"/>
<line x1="30.3535" y1="20.0056" x2="43.8701" y2="20.0056" stroke="#00B127"/>
<path d="M12.4967 21.3719C11.3449 32.0317 19.7527 33.99 24.1006 33.6366C16.9423 28.0212 13.382 23.1204 12.4967 21.3719ZM12.4967 21.3719L12.4368 20.8733C21.4175 21.4138 24.3273 29.8999 24.6596 34.0753" stroke="#00B127"/>
<path d="M28.5236 14.6564C19.0267 19.5275 21.9857 27.5849 24.6523 31.0047C25.4178 21.9861 27.5521 16.3481 28.5236 14.6564ZM28.5236 14.6564L28.9058 14.334C33.3569 22.0923 27.8848 29.15 24.5924 31.7091" stroke="#00B127"/>
<path d="M17.1576 46.6217C17.0942 46.5051 17.0026 46.4167 16.8826 46.3567C16.7659 46.2934 16.6276 46.2617 16.4676 46.2617C16.1909 46.2617 15.9692 46.3534 15.8026 46.5367C15.6359 46.7167 15.5526 46.9584 15.5526 47.2617C15.5526 47.5851 15.6392 47.8384 15.8126 48.0217C15.9892 48.2017 16.2309 48.2917 16.5376 48.2917C16.7476 48.2917 16.9242 48.2384 17.0676 48.1317C17.2142 48.0251 17.3209 47.8717 17.3876 47.6717H16.3026V47.0417H18.1626V47.8367C18.0992 48.0501 17.9909 48.2484 17.8376 48.4317C17.6876 48.6151 17.4959 48.7634 17.2626 48.8767C17.0292 48.9901 16.7659 49.0467 16.4726 49.0467C16.1259 49.0467 15.8159 48.9717 15.5426 48.8217C15.2726 48.6684 15.0609 48.4567 14.9076 48.1867C14.7576 47.9167 14.6826 47.6084 14.6826 47.2617C14.6826 46.9151 14.7576 46.6067 14.9076 46.3367C15.0609 46.0634 15.2726 45.8517 15.5426 45.7017C15.8126 45.5484 16.1209 45.4717 16.4676 45.4717C16.8876 45.4717 17.2409 45.5734 17.5276 45.7767C17.8176 45.9801 18.0092 46.2617 18.1026 46.6217H17.1576ZM21.4857 49.0217L20.7557 47.6967H20.5507V49.0217H19.6957V45.5117H21.1307C21.4074 45.5117 21.6424 45.5601 21.8357 45.6567C22.0324 45.7534 22.1791 45.8867 22.2757 46.0567C22.3724 46.2234 22.4207 46.4101 22.4207 46.6167C22.4207 46.8501 22.3541 47.0584 22.2207 47.2417C22.0907 47.4251 21.8974 47.5551 21.6407 47.6317L22.4507 49.0217H21.4857ZM20.5507 47.0917H21.0807C21.2374 47.0917 21.3541 47.0534 21.4307 46.9767C21.5107 46.9001 21.5507 46.7917 21.5507 46.6517C21.5507 46.5184 21.5107 46.4134 21.4307 46.3367C21.3541 46.2601 21.2374 46.2217 21.0807 46.2217H20.5507V47.0917ZM24.872 46.1967V46.9067H26.017V47.5667H24.872V48.3367H26.167V49.0217H24.017V45.5117H26.167V46.1967H24.872ZM28.6367 46.1967V46.9067H29.7817V47.5667H28.6367V48.3367H29.9317V49.0217H27.7817V45.5117H29.9317V46.1967H28.6367ZM34.6863 49.0217H33.8313L32.4013 46.8567V49.0217H31.5463V45.5117H32.4013L33.8313 47.6867V45.5117H34.6863V49.0217ZM37.2207 45.5117V49.0217H36.3657V45.5117H37.2207ZM41.1848 45.5117V46.1967H39.7548V46.9367H40.8248V47.6017H39.7548V49.0217H38.8998V45.5117H41.1848ZM45.7038 45.5117L44.4888 47.8617V49.0217H43.6338V47.8617L42.4188 45.5117H43.3888L44.0688 46.9817L44.7438 45.5117H45.7038Z" fill="#00B127"/>
</svg>
